<svg width="1412" height="582" viewBox="0 0 1412 582" fill="none" xmlns="http://www.w3.org/2000/svg">
<path d="M610.165 65.4659V97H595.037V24.2727H609.739V52.0781H610.378C611.609 48.8584 613.598 46.3371 616.344 44.5142C619.09 42.6676 622.535 41.7443 626.678 41.7443C630.465 41.7443 633.768 42.5729 636.585 44.2301C639.426 45.8636 641.628 48.2192 643.19 51.2969C644.777 54.3509 645.558 58.0085 645.534 62.2699V97H630.406V64.9688C630.43 61.607 629.578 58.991 627.849 57.1207C626.145 55.2505 623.754 54.3153 620.676 54.3153C618.616 54.3153 616.794 54.7533 615.207 55.6293C613.645 56.5052 612.414 57.7836 611.514 59.4645C610.638 61.1217 610.188 63.1222 610.165 65.4659ZM682.297 98.0653C676.686 98.0653 671.857 96.929 667.809 94.6562C663.784 92.3598 660.683 89.1165 658.505 84.9261C656.327 80.7121 655.238 75.7287 655.238 69.9759C655.238 64.3651 656.327 59.4408 658.505 55.2031C660.683 50.9654 663.748 47.6629 667.702 45.2955C671.679 42.928 676.343 41.7443 681.694 41.7443C685.292 41.7443 688.642 42.3243 691.743 43.4844C694.868 44.6207 697.591 46.3371 699.911 48.6335C702.255 50.9299 704.078 53.8182 705.38 57.2983C706.682 60.7547 707.333 64.803 707.333 69.4432V73.598H661.275V64.223H693.093C693.093 62.045 692.619 60.1155 691.672 58.4347C690.725 56.7538 689.411 55.4399 687.73 54.4929C686.073 53.5223 684.144 53.0369 681.942 53.0369C679.646 53.0369 677.61 53.5696 675.834 54.6349C674.082 55.6766 672.709 57.0852 671.715 58.8608C670.721 60.6127 670.212 62.5658 670.188 64.7202V73.6335C670.188 76.3324 670.685 78.6643 671.679 80.6293C672.697 82.5942 674.13 84.1094 675.976 85.1747C677.823 86.2401 680.013 86.7727 682.546 86.7727C684.227 86.7727 685.766 86.536 687.162 86.0625C688.559 85.589 689.755 84.8788 690.749 83.9318C691.743 82.9848 692.501 81.8248 693.022 80.4517L707.013 81.375C706.303 84.7367 704.847 87.6723 702.645 90.1818C700.467 92.6676 697.65 94.6089 694.194 96.0057C690.761 97.3788 686.795 98.0653 682.297 98.0653ZM732.333 24.2727V97H717.205V24.2727H732.333ZM759.579 24.2727V97H744.451V24.2727H759.579ZM796.342 98.0653C790.826 98.0653 786.056 96.8935 782.031 94.5497C778.03 92.1823 774.94 88.8916 772.762 84.6776C770.584 80.4399 769.495 75.5275 769.495 69.9403C769.495 64.3059 770.584 59.3816 772.762 55.1676C774.94 50.9299 778.03 47.6392 782.031 45.2955C786.056 42.928 790.826 41.7443 796.342 41.7443C801.858 41.7443 806.617 42.928 810.618 45.2955C814.642 47.6392 817.743 50.9299 819.922 55.1676C822.1 59.3816 823.189 64.3059 823.189 69.9403C823.189 75.5275 822.1 80.4399 819.922 84.6776C817.743 88.8916 814.642 92.1823 810.618 94.5497C806.617 96.8935 801.858 98.0653 796.342 98.0653ZM796.413 86.3466C798.922 86.3466 801.018 85.6364 802.699 84.2159C804.379 82.7718 805.646 80.8068 806.498 78.321C807.374 75.8352 807.812 73.0062 807.812 69.8338C807.812 66.6615 807.374 63.8324 806.498 61.3466C805.646 58.8608 804.379 56.8958 802.699 55.4517C801.018 54.0076 798.922 53.2855 796.413 53.2855C793.88 53.2855 791.749 54.0076 790.021 55.4517C788.316 56.8958 787.026 58.8608 786.15 61.3466C785.298 63.8324 784.872 66.6615 784.872 69.8338C784.872 73.0062 785.298 75.8352 786.15 78.321C787.026 80.8068 788.316 82.7718 790.021 84.2159C791.749 85.6364 793.88 86.3466 796.413 86.3466ZM866.93 97L852.086 42.4545H867.391L875.843 79.1023H876.34L885.147 42.4545H900.168L909.117 78.8892H909.579L917.888 42.4545H933.158L918.35 97H902.335L892.96 62.696H892.285L882.91 97H866.93ZM964.506 98.0653C958.99 98.0653 954.22 96.8935 950.195 94.5497C946.194 92.1823 943.105 88.8916 940.926 84.6776C938.748 80.4399 937.659 75.5275 937.659 69.9403C937.659 64.3059 938.748 59.3816 940.926 55.1676C943.105 50.9299 946.194 47.6392 950.195 45.2955C954.22 42.928 958.99 41.7443 964.506 41.7443C970.022 41.7443 974.781 42.928 978.782 45.2955C982.806 47.6392 985.908 50.9299 988.086 55.1676C990.264 59.3816 991.353 64.3059 991.353 69.9403C991.353 75.5275 990.264 80.4399 988.086 84.6776C985.908 88.8916 982.806 92.1823 978.782 94.5497C974.781 96.8935 970.022 98.0653 964.506 98.0653ZM964.577 86.3466C967.087 86.3466 969.182 85.6364 970.863 84.2159C972.543 82.7718 973.81 80.8068 974.662 78.321C975.538 75.8352 975.976 73.0062 975.976 69.8338C975.976 66.6615 975.538 63.8324 974.662 61.3466C973.81 58.8608 972.543 56.8958 970.863 55.4517C969.182 54.0076 967.087 53.2855 964.577 53.2855C962.044 53.2855 959.913 54.0076 958.185 55.4517C956.48 56.8958 955.19 58.8608 954.314 61.3466C953.462 63.8324 953.036 66.6615 953.036 69.8338C953.036 73.0062 953.462 75.8352 954.314 78.321C955.19 80.8068 956.48 82.7718 958.185 84.2159C959.913 85.6364 962.044 86.3466 964.577 86.3466ZM1001.19 97V42.4545H1015.86V51.9716H1016.42C1017.42 48.5862 1019.09 46.0294 1021.43 44.3011C1023.77 42.5492 1026.47 41.6733 1029.53 41.6733C1030.28 41.6733 1031.1 41.7206 1031.98 41.8153C1032.85 41.91 1033.62 42.0402 1034.29 42.206V55.6293C1033.58 55.4162 1032.59 55.2268 1031.34 55.0611C1030.08 54.8954 1028.94 54.8125 1027.89 54.8125C1025.67 54.8125 1023.68 55.2978 1021.93 56.2685C1020.2 57.2154 1018.83 58.5412 1017.81 60.2457C1016.81 61.9503 1016.32 63.9152 1016.32 66.1406V97H1001.19ZM1057.24 24.2727V97H1042.11V24.2727H1057.24ZM1089.45 97.8878C1085.31 97.8878 1081.56 96.8224 1078.2 94.6918C1074.86 92.5374 1072.21 89.3769 1070.24 85.2102C1068.3 81.0199 1067.33 75.8826 1067.33 69.7983C1067.33 63.5483 1068.34 58.3518 1070.35 54.2088C1072.36 50.0421 1075.04 46.929 1078.37 44.8693C1081.73 42.786 1085.42 41.7443 1089.42 41.7443C1092.47 41.7443 1095.02 42.2652 1097.05 43.3068C1099.11 44.3248 1100.77 45.6032 1102.02 47.142C1103.3 48.6572 1104.27 50.1487 1104.94 51.6165H1105.4V24.2727H1120.49V97H1105.57V88.2642H1104.94C1104.23 89.7794 1103.22 91.2827 1101.92 92.7741C1100.64 94.242 1098.97 95.4612 1096.91 96.4318C1094.87 97.4025 1092.39 97.8878 1089.45 97.8878ZM1094.25 85.8494C1096.69 85.8494 1098.74 85.1866 1100.43 83.8608C1102.13 82.5114 1103.43 80.6293 1104.33 78.2145C1105.26 75.7997 1105.72 72.9706 1105.72 69.7273C1105.72 66.4839 1105.27 63.6667 1104.37 61.2756C1103.47 58.8845 1102.17 57.0379 1100.46 55.7358C1098.76 54.4337 1096.69 53.7827 1094.25 53.7827C1091.76 53.7827 1089.67 54.4574 1087.96 55.8068C1086.26 57.1562 1084.97 59.0265 1084.09 61.4176C1083.21 63.8087 1082.78 66.5786 1082.78 69.7273C1082.78 72.8996 1083.21 75.705 1084.09 78.1435C1084.99 80.5582 1086.28 82.4522 1087.96 83.8253C1089.67 85.1747 1091.76 85.8494 1094.25 85.8494ZM1171.2 65.4659V97H1156.07V24.2727H1170.77V52.0781H1171.41C1172.64 48.8584 1174.63 46.3371 1177.38 44.5142C1180.13 42.6676 1183.57 41.7443 1187.71 41.7443C1191.5 41.7443 1194.8 42.5729 1197.62 44.2301C1200.46 45.8636 1202.66 48.2192 1204.23 51.2969C1205.81 54.3509 1206.59 58.0085 1206.57 62.2699V97H1191.44V64.9688C1191.47 61.607 1190.61 58.991 1188.88 57.1207C1187.18 55.2505 1184.79 54.3153 1181.71 54.3153C1179.65 54.3153 1177.83 54.7533 1176.24 55.6293C1174.68 56.5052 1173.45 57.7836 1172.55 59.4645C1171.67 61.1217 1171.22 63.1222 1171.2 65.4659ZM1243.33 98.0653C1237.72 98.0653 1232.89 96.929 1228.84 94.6562C1224.82 92.3598 1221.72 89.1165 1219.54 84.9261C1217.36 80.7121 1216.27 75.7287 1216.27 69.9759C1216.27 64.3651 1217.36 59.4408 1219.54 55.2031C1221.72 50.9654 1224.78 47.6629 1228.74 45.2955C1232.71 42.928 1237.38 41.7443 1242.73 41.7443C1246.33 41.7443 1249.68 42.3243 1252.78 43.4844C1255.9 44.6207 1258.63 46.3371 1260.95 48.6335C1263.29 50.9299 1265.11 53.8182 1266.41 57.2983C1267.72 60.7547 1268.37 64.803 1268.37 69.4432V73.598H1222.31V64.223H1254.13C1254.13 62.045 1253.65 60.1155 1252.71 58.4347C1251.76 56.7538 1250.45 55.4399 1248.77 54.4929C1247.11 53.5223 1245.18 53.0369 1242.98 53.0369C1240.68 53.0369 1238.64 53.5696 1236.87 54.6349C1235.12 55.6766 1233.74 57.0852 1232.75 58.8608C1231.76 60.6127 1231.25 62.5658 1231.22 64.7202V73.6335C1231.22 76.3324 1231.72 78.6643 1232.71 80.6293C1233.73 82.5942 1235.16 84.1094 1237.01 85.1747C1238.86 86.2401 1241.05 86.7727 1243.58 86.7727C1245.26 86.7727 1246.8 86.536 1248.2 86.0625C1249.59 85.589 1250.79 84.8788 1251.78 83.9318C1252.78 82.9848 1253.54 81.8248 1254.06 80.4517L1268.05 81.375C1267.34 84.7367 1265.88 87.6723 1263.68 90.1818C1261.5 92.6676 1258.69 94.6089 1255.23 96.0057C1251.8 97.3788 1247.83 98.0653 1243.33 98.0653ZM1293.37 24.2727V97H1278.24V24.2727H1293.37ZM1320.61 24.2727V97H1305.49V24.2727H1320.61ZM1357.38 98.0653C1351.86 98.0653 1347.09 96.8935 1343.07 94.5497C1339.07 92.1823 1335.98 88.8916 1333.8 84.6776C1331.62 80.4399 1330.53 75.5275 1330.53 69.9403C1330.53 64.3059 1331.62 59.3816 1333.8 55.1676C1335.98 50.9299 1339.07 47.6392 1343.07 45.2955C1347.09 42.928 1351.86 41.7443 1357.38 41.7443C1362.89 41.7443 1367.65 42.928 1371.65 45.2955C1375.68 47.6392 1378.78 50.9299 1380.96 55.1676C1383.13 59.3816 1384.22 64.3059 1384.22 69.9403C1384.22 75.5275 1383.13 80.4399 1380.96 84.6776C1378.78 88.8916 1375.68 92.1823 1371.65 94.5497C1367.65 96.8935 1362.89 98.0653 1357.38 98.0653ZM1357.45 86.3466C1359.96 86.3466 1362.05 85.6364 1363.73 84.2159C1365.41 82.7718 1366.68 80.8068 1367.53 78.321C1368.41 75.8352 1368.85 73.0062 1368.85 69.8338C1368.85 66.6615 1368.41 63.8324 1367.53 61.3466C1366.68 58.8608 1365.41 56.8958 1363.73 55.4517C1362.05 54.0076 1359.96 53.2855 1357.45 53.2855C1354.92 53.2855 1352.78 54.0076 1351.06 55.4517C1349.35 56.8958 1348.06 58.8608 1347.19 61.3466C1346.33 63.8324 1345.91 66.6615 1345.91 69.8338C1345.91 73.0062 1346.33 75.8352 1347.19 78.321C1348.06 80.8068 1349.35 82.7718 1351.06 84.2159C1352.78 85.6364 1354.92 86.3466 1357.45 86.3466Z" fill="#006CA9"/>
<path d="M332.165 186.466V218H317.037V145.273H331.739V173.078H332.378C333.609 169.858 335.598 167.337 338.344 165.514C341.09 163.668 344.535 162.744 348.678 162.744C352.465 162.744 355.768 163.573 358.585 165.23C361.426 166.864 363.628 169.219 365.19 172.297C366.777 175.351 367.558 179.009 367.534 183.27V218H352.406V185.969C352.43 182.607 351.578 179.991 349.849 178.121C348.145 176.25 345.754 175.315 342.676 175.315C340.616 175.315 338.794 175.753 337.207 176.629C335.645 177.505 334.414 178.784 333.514 180.464C332.638 182.122 332.188 184.122 332.165 186.466ZM404.297 219.065C398.686 219.065 393.857 217.929 389.809 215.656C385.784 213.36 382.683 210.116 380.505 205.926C378.327 201.712 377.238 196.729 377.238 190.976C377.238 185.365 378.327 180.441 380.505 176.203C382.683 171.965 385.748 168.663 389.702 166.295C393.679 163.928 398.343 162.744 403.694 162.744C407.292 162.744 410.642 163.324 413.743 164.484C416.868 165.621 419.591 167.337 421.911 169.634C424.255 171.93 426.078 174.818 427.38 178.298C428.682 181.755 429.333 185.803 429.333 190.443V194.598H383.275V185.223H415.093C415.093 183.045 414.619 181.116 413.672 179.435C412.725 177.754 411.411 176.44 409.73 175.493C408.073 174.522 406.144 174.037 403.942 174.037C401.646 174.037 399.61 174.57 397.834 175.635C396.082 176.677 394.709 178.085 393.715 179.861C392.721 181.613 392.212 183.566 392.188 185.72V194.634C392.188 197.332 392.685 199.664 393.679 201.629C394.697 203.594 396.13 205.109 397.976 206.175C399.823 207.24 402.013 207.773 404.546 207.773C406.227 207.773 407.766 207.536 409.162 207.062C410.559 206.589 411.755 205.879 412.749 204.932C413.743 203.985 414.501 202.825 415.022 201.452L429.013 202.375C428.303 205.737 426.847 208.672 424.645 211.182C422.467 213.668 419.65 215.609 416.194 217.006C412.761 218.379 408.795 219.065 404.297 219.065ZM454.333 145.273V218H439.205V145.273H454.333ZM481.579 145.273V218H466.451V145.273H481.579ZM518.342 219.065C512.826 219.065 508.056 217.893 504.031 215.55C500.03 213.182 496.94 209.892 494.762 205.678C492.584 201.44 491.495 196.527 491.495 190.94C491.495 185.306 492.584 180.382 494.762 176.168C496.94 171.93 500.03 168.639 504.031 166.295C508.056 163.928 512.826 162.744 518.342 162.744C523.858 162.744 528.617 163.928 532.618 166.295C536.642 168.639 539.743 171.93 541.922 176.168C544.1 180.382 545.189 185.306 545.189 190.94C545.189 196.527 544.1 201.44 541.922 205.678C539.743 209.892 536.642 213.182 532.618 215.55C528.617 217.893 523.858 219.065 518.342 219.065ZM518.413 207.347C520.922 207.347 523.018 206.636 524.699 205.216C526.379 203.772 527.646 201.807 528.498 199.321C529.374 196.835 529.812 194.006 529.812 190.834C529.812 187.661 529.374 184.832 528.498 182.347C527.646 179.861 526.379 177.896 524.699 176.452C523.018 175.008 520.922 174.286 518.413 174.286C515.88 174.286 513.749 175.008 512.021 176.452C510.316 177.896 509.026 179.861 508.15 182.347C507.298 184.832 506.872 187.661 506.872 190.834C506.872 194.006 507.298 196.835 508.15 199.321C509.026 201.807 510.316 203.772 512.021 205.216C513.749 206.636 515.88 207.347 518.413 207.347Z" fill="#006CA9"/>
<path d="M723.5 159.818L713.841 218H706.795L715.205 167.205H714.864L699.068 176.636L700.318 169.477L716.455 159.818H723.5Z" fill="#737370"/>
<path d="M1278.39 218L1279.3 212.886L1301.91 191.864C1304.56 189.402 1306.77 187.252 1308.53 185.415C1310.31 183.578 1311.69 181.854 1312.68 180.244C1313.68 178.634 1314.33 176.939 1314.64 175.159C1314.98 173.114 1314.8 171.343 1314.1 169.847C1313.4 168.35 1312.29 167.195 1310.77 166.381C1309.26 165.566 1307.44 165.159 1305.32 165.159C1303.08 165.159 1301.05 165.623 1299.21 166.551C1297.37 167.46 1295.85 168.748 1294.64 170.415C1293.42 172.062 1292.63 173.985 1292.25 176.182H1285.55C1286.11 172.773 1287.41 169.78 1289.44 167.205C1291.48 164.629 1293.99 162.621 1296.97 161.182C1299.96 159.742 1303.16 159.023 1306.57 159.023C1309.98 159.023 1312.87 159.742 1315.23 161.182C1317.6 162.621 1319.31 164.562 1320.38 167.006C1321.44 169.449 1321.72 172.167 1321.23 175.159C1320.85 177.318 1320.1 179.411 1318.98 181.438C1317.87 183.464 1316.15 185.727 1313.84 188.227C1311.55 190.708 1308.44 193.739 1304.52 197.318L1289.18 211.295L1289.07 211.75H1316.11L1315.09 218H1278.39Z" fill="#FA8F00"/>
<path d="M610.591 397.03C607.111 397.03 604.009 396.426 601.287 395.219C598.564 393.988 596.41 392.177 594.824 389.786C593.261 387.371 592.48 384.364 592.48 380.766C592.48 377.735 593.036 375.19 594.149 373.131C595.262 371.071 596.777 369.414 598.695 368.159C600.612 366.904 602.79 365.957 605.229 365.318C607.691 364.679 610.271 364.229 612.97 363.969C616.143 363.637 618.699 363.33 620.641 363.045C622.582 362.738 623.991 362.288 624.866 361.696C625.742 361.104 626.18 360.228 626.18 359.068V358.855C626.18 356.606 625.47 354.866 624.05 353.635C622.653 352.404 620.664 351.788 618.084 351.788C615.361 351.788 613.195 352.392 611.585 353.599C609.975 354.783 608.91 356.275 608.389 358.074L594.398 356.938C595.108 353.623 596.505 350.759 598.588 348.344C600.671 345.905 603.358 344.035 606.649 342.733C609.964 341.407 613.799 340.744 618.155 340.744C621.185 340.744 624.085 341.099 626.855 341.81C629.649 342.52 632.123 343.621 634.277 345.112C636.455 346.604 638.171 348.521 639.426 350.865C640.681 353.185 641.308 355.967 641.308 359.21V396H626.962V388.436H626.536C625.66 390.141 624.488 391.644 623.02 392.946C621.552 394.224 619.788 395.231 617.729 395.964C615.669 396.675 613.29 397.03 610.591 397.03ZM614.923 386.589C617.149 386.589 619.114 386.152 620.818 385.276C622.523 384.376 623.86 383.169 624.831 381.653C625.802 380.138 626.287 378.422 626.287 376.504V370.716C625.813 371.024 625.162 371.308 624.334 371.568C623.529 371.805 622.617 372.03 621.599 372.243C620.581 372.432 619.563 372.61 618.545 372.776C617.527 372.918 616.604 373.048 615.776 373.166C614 373.427 612.449 373.841 611.124 374.409C609.798 374.977 608.768 375.747 608.034 376.717C607.3 377.664 606.933 378.848 606.933 380.268C606.933 382.328 607.679 383.902 609.17 384.991C610.686 386.057 612.603 386.589 614.923 386.589ZM653.045 416.455V341.455H667.96V350.616H668.634C669.297 349.149 670.256 347.657 671.511 346.142C672.789 344.603 674.446 343.325 676.482 342.307C678.542 341.265 681.099 340.744 684.153 340.744C688.13 340.744 691.799 341.786 695.161 343.869C698.523 345.929 701.21 349.042 703.222 353.209C705.235 357.352 706.241 362.548 706.241 368.798C706.241 374.883 705.258 380.02 703.293 384.21C701.352 388.377 698.701 391.537 695.339 393.692C692.001 395.822 688.26 396.888 684.117 396.888C681.182 396.888 678.684 396.402 676.624 395.432C674.588 394.461 672.919 393.242 671.617 391.774C670.315 390.283 669.321 388.779 668.634 387.264H668.173V416.455H653.045ZM667.853 368.727C667.853 371.971 668.303 374.8 669.202 377.214C670.102 379.629 671.404 381.511 673.109 382.861C674.813 384.187 676.885 384.849 679.323 384.849C681.785 384.849 683.869 384.175 685.573 382.825C687.278 381.452 688.568 379.558 689.444 377.143C690.344 374.705 690.793 371.9 690.793 368.727C690.793 365.579 690.355 362.809 689.479 360.418C688.603 358.027 687.313 356.156 685.609 354.807C683.904 353.457 681.809 352.783 679.323 352.783C676.861 352.783 674.778 353.434 673.073 354.736C671.392 356.038 670.102 357.884 669.202 360.276C668.303 362.667 667.853 365.484 667.853 368.727ZM716.326 416.455V341.455H731.241V350.616H731.915C732.578 349.149 733.537 347.657 734.792 346.142C736.07 344.603 737.728 343.325 739.763 342.307C741.823 341.265 744.38 340.744 747.434 340.744C751.411 340.744 755.081 341.786 758.442 343.869C761.804 345.929 764.491 349.042 766.504 353.209C768.516 357.352 769.522 362.548 769.522 368.798C769.522 374.883 768.54 380.02 766.575 384.21C764.633 388.377 761.982 391.537 758.62 393.692C755.282 395.822 751.541 396.888 747.398 396.888C744.463 396.888 741.965 396.402 739.906 395.432C737.87 394.461 736.201 393.242 734.898 391.774C733.596 390.283 732.602 388.779 731.915 387.264H731.454V416.455H716.326ZM731.134 368.727C731.134 371.971 731.584 374.8 732.484 377.214C733.383 379.629 734.685 381.511 736.39 382.861C738.094 384.187 740.166 384.849 742.604 384.849C745.067 384.849 747.15 384.175 748.854 382.825C750.559 381.452 751.849 379.558 752.725 377.143C753.625 374.705 754.075 371.9 754.075 368.727C754.075 365.579 753.637 362.809 752.761 360.418C751.885 358.027 750.594 356.156 748.89 354.807C747.185 353.457 745.09 352.783 742.604 352.783C740.142 352.783 738.059 353.434 736.354 354.736C734.674 356.038 733.383 357.884 732.484 360.276C731.584 362.667 731.134 365.484 731.134 368.727ZM794.735 323.273V396H779.607V323.273H794.735ZM831.711 397.065C826.1 397.065 821.271 395.929 817.223 393.656C813.198 391.36 810.097 388.116 807.919 383.926C805.741 379.712 804.652 374.729 804.652 368.976C804.652 363.365 805.741 358.441 807.919 354.203C810.097 349.965 813.163 346.663 817.116 344.295C821.093 341.928 825.757 340.744 831.108 340.744C834.706 340.744 838.056 341.324 841.157 342.484C844.282 343.621 847.005 345.337 849.325 347.634C851.669 349.93 853.492 352.818 854.794 356.298C856.096 359.755 856.747 363.803 856.747 368.443V372.598H810.689V363.223H842.507C842.507 361.045 842.033 359.116 841.086 357.435C840.139 355.754 838.825 354.44 837.145 353.493C835.487 352.522 833.558 352.037 831.356 352.037C829.06 352.037 827.024 352.57 825.248 353.635C823.496 354.677 822.123 356.085 821.129 357.861C820.135 359.613 819.626 361.566 819.602 363.72V372.634C819.602 375.332 820.099 377.664 821.093 379.629C822.111 381.594 823.544 383.109 825.39 384.175C827.237 385.24 829.427 385.773 831.96 385.773C833.641 385.773 835.18 385.536 836.576 385.062C837.973 384.589 839.169 383.879 840.163 382.932C841.157 381.985 841.915 380.825 842.436 379.452L856.427 380.375C855.717 383.737 854.261 386.672 852.059 389.182C849.881 391.668 847.064 393.609 843.608 395.006C840.175 396.379 836.209 397.065 831.711 397.065ZM882.173 397.03C878.693 397.03 875.592 396.426 872.869 395.219C870.146 393.988 867.992 392.177 866.406 389.786C864.843 387.371 864.062 384.364 864.062 380.766C864.062 377.735 864.618 375.19 865.731 373.131C866.844 371.071 868.359 369.414 870.277 368.159C872.194 366.904 874.372 365.957 876.811 365.318C879.273 364.679 881.853 364.229 884.552 363.969C887.725 363.637 890.281 363.33 892.223 363.045C894.164 362.738 895.573 362.288 896.449 361.696C897.324 361.104 897.762 360.228 897.762 359.068V358.855C897.762 356.606 897.052 354.866 895.632 353.635C894.235 352.404 892.246 351.788 889.666 351.788C886.943 351.788 884.777 352.392 883.167 353.599C881.557 354.783 880.492 356.275 879.971 358.074L865.98 356.938C866.69 353.623 868.087 350.759 870.17 348.344C872.253 345.905 874.94 344.035 878.231 342.733C881.546 341.407 885.381 340.744 889.737 340.744C892.767 340.744 895.667 341.099 898.437 341.81C901.231 342.52 903.705 343.621 905.859 345.112C908.037 346.604 909.753 348.521 911.008 350.865C912.263 353.185 912.89 355.967 912.89 359.21V396H898.544V388.436H898.118C897.242 390.141 896.07 391.644 894.602 392.946C893.134 394.224 891.37 395.231 889.311 395.964C887.251 396.675 884.872 397.03 882.173 397.03ZM886.505 386.589C888.731 386.589 890.696 386.152 892.4 385.276C894.105 384.376 895.442 383.169 896.413 381.653C897.384 380.138 897.869 378.422 897.869 376.504V370.716C897.395 371.024 896.744 371.308 895.916 371.568C895.111 371.805 894.199 372.03 893.181 372.243C892.163 372.432 891.145 372.61 890.127 372.776C889.109 372.918 888.186 373.048 887.358 373.166C885.582 373.427 884.031 373.841 882.706 374.409C881.38 374.977 880.35 375.747 879.616 376.717C878.882 377.664 878.515 378.848 878.515 380.268C878.515 382.328 879.261 383.902 880.752 384.991C882.268 386.057 884.185 386.589 886.505 386.589ZM924.627 416.455V341.455H939.542V350.616H940.216C940.879 349.149 941.838 347.657 943.093 346.142C944.371 344.603 946.028 343.325 948.064 342.307C950.124 341.265 952.681 340.744 955.735 340.744C959.712 340.744 963.382 341.786 966.743 343.869C970.105 345.929 972.792 349.042 974.804 353.209C976.817 357.352 977.823 362.548 977.823 368.798C977.823 374.883 976.84 380.02 974.875 384.21C972.934 388.377 970.283 391.537 966.921 393.692C963.583 395.822 959.842 396.888 955.699 396.888C952.764 396.888 950.266 396.402 948.206 395.432C946.17 394.461 944.501 393.242 943.199 391.774C941.897 390.283 940.903 388.779 940.216 387.264H939.755V416.455H924.627ZM939.435 368.727C939.435 371.971 939.885 374.8 940.784 377.214C941.684 379.629 942.986 381.511 944.691 382.861C946.395 384.187 948.467 384.849 950.905 384.849C953.367 384.849 955.451 384.175 957.155 382.825C958.86 381.452 960.15 379.558 961.026 377.143C961.926 374.705 962.375 371.9 962.375 368.727C962.375 365.579 961.937 362.809 961.061 360.418C960.185 358.027 958.895 356.156 957.191 354.807C955.486 353.457 953.391 352.783 950.905 352.783C948.443 352.783 946.36 353.434 944.655 354.736C942.974 356.038 941.684 357.884 940.784 360.276C939.885 362.667 939.435 365.484 939.435 368.727ZM987.908 416.455V341.455H1002.82V350.616H1003.5C1004.16 349.149 1005.12 347.657 1006.37 346.142C1007.65 344.603 1009.31 343.325 1011.35 342.307C1013.41 341.265 1015.96 340.744 1019.02 340.744C1022.99 340.744 1026.66 341.786 1030.02 343.869C1033.39 345.929 1036.07 349.042 1038.09 353.209C1040.1 357.352 1041.1 362.548 1041.1 368.798C1041.1 374.883 1040.12 380.02 1038.16 384.21C1036.22 388.377 1033.56 391.537 1030.2 393.692C1026.86 395.822 1023.12 396.888 1018.98 396.888C1016.04 396.888 1013.55 396.402 1011.49 395.432C1009.45 394.461 1007.78 393.242 1006.48 391.774C1005.18 390.283 1004.18 388.779 1003.5 387.264H1003.04V416.455H987.908ZM1002.72 368.727C1002.72 371.971 1003.17 374.8 1004.07 377.214C1004.97 379.629 1006.27 381.511 1007.97 382.861C1009.68 384.187 1011.75 384.849 1014.19 384.849C1016.65 384.849 1018.73 384.175 1020.44 382.825C1022.14 381.452 1023.43 379.558 1024.31 377.143C1025.21 374.705 1025.66 371.9 1025.66 368.727C1025.66 365.579 1025.22 362.809 1024.34 360.418C1023.47 358.027 1022.18 356.156 1020.47 354.807C1018.77 353.457 1016.67 352.783 1014.19 352.783C1011.72 352.783 1009.64 353.434 1007.94 354.736C1006.26 356.038 1004.97 357.884 1004.07 360.276C1003.17 362.667 1002.72 365.484 1002.72 368.727ZM1066.32 323.273V396H1051.19V323.273H1066.32ZM1103.29 397.065C1097.68 397.065 1092.85 395.929 1088.8 393.656C1084.78 391.36 1081.68 388.116 1079.5 383.926C1077.32 379.712 1076.23 374.729 1076.23 368.976C1076.23 363.365 1077.32 358.441 1079.5 354.203C1081.68 349.965 1084.74 346.663 1088.7 344.295C1092.68 341.928 1097.34 340.744 1102.69 340.744C1106.29 340.744 1109.64 341.324 1112.74 342.484C1115.86 343.621 1118.59 345.337 1120.91 347.634C1123.25 349.93 1125.07 352.818 1126.38 356.298C1127.68 359.755 1128.33 363.803 1128.33 368.443V372.598H1082.27V363.223H1114.09C1114.09 361.045 1113.62 359.116 1112.67 357.435C1111.72 355.754 1110.41 354.44 1108.73 353.493C1107.07 352.522 1105.14 352.037 1102.94 352.037C1100.64 352.037 1098.61 352.57 1096.83 353.635C1095.08 354.677 1093.71 356.085 1092.71 357.861C1091.72 359.613 1091.21 361.566 1091.18 363.72V372.634C1091.18 375.332 1091.68 377.664 1092.68 379.629C1093.69 381.594 1095.13 383.109 1096.97 384.175C1098.82 385.24 1101.01 385.773 1103.54 385.773C1105.22 385.773 1106.76 385.536 1108.16 385.062C1109.56 384.589 1110.75 383.879 1111.75 382.932C1112.74 381.985 1113.5 380.825 1114.02 379.452L1128.01 380.375C1127.3 383.737 1125.84 386.672 1123.64 389.182C1121.46 391.668 1118.65 393.609 1115.19 395.006C1111.76 396.379 1107.79 397.065 1103.29 397.065ZM1153.75 397.03C1150.27 397.03 1147.17 396.426 1144.45 395.219C1141.73 393.988 1139.57 392.177 1137.99 389.786C1136.43 387.371 1135.64 384.364 1135.64 380.766C1135.64 377.735 1136.2 375.19 1137.31 373.131C1138.43 371.071 1139.94 369.414 1141.86 368.159C1143.78 366.904 1145.95 365.957 1148.39 365.318C1150.85 364.679 1153.44 364.229 1156.13 363.969C1159.31 363.637 1161.86 363.33 1163.8 363.045C1165.75 362.738 1167.15 362.288 1168.03 361.696C1168.91 361.104 1169.34 360.228 1169.34 359.068V358.855C1169.34 356.606 1168.63 354.866 1167.21 353.635C1165.82 352.404 1163.83 351.788 1161.25 351.788C1158.53 351.788 1156.36 352.392 1154.75 353.599C1153.14 354.783 1152.07 356.275 1151.55 358.074L1137.56 356.938C1138.27 353.623 1139.67 350.759 1141.75 348.344C1143.84 345.905 1146.52 344.035 1149.81 342.733C1153.13 341.407 1156.96 340.744 1161.32 340.744C1164.35 340.744 1167.25 341.099 1170.02 341.81C1172.81 342.52 1175.29 343.621 1177.44 345.112C1179.62 346.604 1181.34 348.521 1182.59 350.865C1183.84 353.185 1184.47 355.967 1184.47 359.21V396H1170.13V388.436H1169.7C1168.82 390.141 1167.65 391.644 1166.18 392.946C1164.72 394.224 1162.95 395.231 1160.89 395.964C1158.83 396.675 1156.45 397.03 1153.75 397.03ZM1158.09 386.589C1160.31 386.589 1162.28 386.152 1163.98 385.276C1165.69 384.376 1167.02 383.169 1168 381.653C1168.97 380.138 1169.45 378.422 1169.45 376.504V370.716C1168.98 371.024 1168.33 371.308 1167.5 371.568C1166.69 371.805 1165.78 372.03 1164.76 372.243C1163.75 372.432 1162.73 372.61 1161.71 372.776C1160.69 372.918 1159.77 373.048 1158.94 373.166C1157.16 373.427 1155.61 373.841 1154.29 374.409C1152.96 374.977 1151.93 375.747 1151.2 376.717C1150.46 377.664 1150.1 378.848 1150.1 380.268C1150.1 382.328 1150.84 383.902 1152.33 384.991C1153.85 386.057 1155.77 386.589 1158.09 386.589ZM1196.21 416.455V341.455H1211.12V350.616H1211.8C1212.46 349.149 1213.42 347.657 1214.67 346.142C1215.95 344.603 1217.61 343.325 1219.65 342.307C1221.71 341.265 1224.26 340.744 1227.32 340.744C1231.29 340.744 1234.96 341.786 1238.33 343.869C1241.69 345.929 1244.37 349.042 1246.39 353.209C1248.4 357.352 1249.4 362.548 1249.4 368.798C1249.4 374.883 1248.42 380.02 1246.46 384.21C1244.52 388.377 1241.86 391.537 1238.5 393.692C1235.16 395.822 1231.42 396.888 1227.28 396.888C1224.35 396.888 1221.85 396.402 1219.79 395.432C1217.75 394.461 1216.08 393.242 1214.78 391.774C1213.48 390.283 1212.48 388.779 1211.8 387.264H1211.34V416.455H1196.21ZM1211.02 368.727C1211.02 371.971 1211.47 374.8 1212.37 377.214C1213.27 379.629 1214.57 381.511 1216.27 382.861C1217.98 384.187 1220.05 384.849 1222.49 384.849C1224.95 384.849 1227.03 384.175 1228.74 382.825C1230.44 381.452 1231.73 379.558 1232.61 377.143C1233.51 374.705 1233.96 371.9 1233.96 368.727C1233.96 365.579 1233.52 362.809 1232.64 360.418C1231.77 358.027 1230.48 356.156 1228.77 354.807C1227.07 353.457 1224.97 352.783 1222.49 352.783C1220.03 352.783 1217.94 353.434 1216.24 354.736C1214.56 356.038 1213.27 357.884 1212.37 360.276C1211.47 362.667 1211.02 365.484 1211.02 368.727ZM1259.49 416.455V341.455H1274.4V350.616H1275.08C1275.74 349.149 1276.7 347.657 1277.96 346.142C1279.23 344.603 1280.89 343.325 1282.93 342.307C1284.99 341.265 1287.54 340.744 1290.6 340.744C1294.58 340.744 1298.24 341.786 1301.61 343.869C1304.97 345.929 1307.66 349.042 1309.67 353.209C1311.68 357.352 1312.69 362.548 1312.69 368.798C1312.69 374.883 1311.7 380.02 1309.74 384.21C1307.8 388.377 1305.15 391.537 1301.78 393.692C1298.45 395.822 1294.71 396.888 1290.56 396.888C1287.63 396.888 1285.13 396.402 1283.07 395.432C1281.03 394.461 1279.36 393.242 1278.06 391.774C1276.76 390.283 1275.77 388.779 1275.08 387.264H1274.62V416.455H1259.49ZM1274.3 368.727C1274.3 371.971 1274.75 374.8 1275.65 377.214C1276.55 379.629 1277.85 381.511 1279.55 382.861C1281.26 384.187 1283.33 384.849 1285.77 384.849C1288.23 384.849 1290.31 384.175 1292.02 382.825C1293.72 381.452 1295.01 379.558 1295.89 377.143C1296.79 374.705 1297.24 371.9 1297.24 368.727C1297.24 365.579 1296.8 362.809 1295.92 360.418C1295.05 358.027 1293.76 356.156 1292.05 354.807C1290.35 353.457 1288.25 352.783 1285.77 352.783C1283.31 352.783 1281.22 353.434 1279.52 354.736C1277.84 356.038 1276.55 357.884 1275.65 360.276C1274.75 362.667 1274.3 365.484 1274.3 368.727ZM1337.9 323.273V396H1322.77V323.273H1337.9ZM1374.88 397.065C1369.26 397.065 1364.44 395.929 1360.39 393.656C1356.36 391.36 1353.26 388.116 1351.08 383.926C1348.9 379.712 1347.82 374.729 1347.82 368.976C1347.82 363.365 1348.9 358.441 1351.08 354.203C1353.26 349.965 1356.33 346.663 1360.28 344.295C1364.26 341.928 1368.92 340.744 1374.27 340.744C1377.87 340.744 1381.22 341.324 1384.32 342.484C1387.45 343.621 1390.17 345.337 1392.49 347.634C1394.83 349.93 1396.66 352.818 1397.96 356.298C1399.26 359.755 1399.91 363.803 1399.91 368.443V372.598H1353.85V363.223H1385.67C1385.67 361.045 1385.2 359.116 1384.25 357.435C1383.3 355.754 1381.99 354.44 1380.31 353.493C1378.65 352.522 1376.72 352.037 1374.52 352.037C1372.22 352.037 1370.19 352.57 1368.41 353.635C1366.66 354.677 1365.29 356.085 1364.29 357.861C1363.3 359.613 1362.79 361.566 1362.77 363.72V372.634C1362.77 375.332 1363.26 377.664 1364.26 379.629C1365.28 381.594 1366.71 383.109 1368.55 384.175C1370.4 385.24 1372.59 385.773 1375.12 385.773C1376.8 385.773 1378.34 385.536 1379.74 385.062C1381.14 384.589 1382.33 383.879 1383.33 382.932C1384.32 381.985 1385.08 380.825 1385.6 379.452L1399.59 380.375C1398.88 383.737 1397.43 386.672 1395.22 389.182C1393.05 391.668 1390.23 393.609 1386.77 395.006C1383.34 396.379 1379.37 397.065 1374.88 397.065Z" fill="#006CA9"/>
<path d="M21.5909 559.03C18.1108 559.03 15.0095 558.426 12.2869 557.219C9.56439 555.988 7.41004 554.177 5.82386 551.786C4.26136 549.371 3.48011 546.364 3.48011 542.766C3.48011 539.735 4.03646 537.19 5.14915 535.131C6.26184 533.071 7.77699 531.414 9.6946 530.159C11.6122 528.904 13.7902 527.957 16.2287 527.318C18.6908 526.679 21.2713 526.229 23.9702 525.969C27.1425 525.637 29.6993 525.33 31.6406 525.045C33.5819 524.738 34.9905 524.288 35.8665 523.696C36.7424 523.104 37.1804 522.228 37.1804 521.068V520.855C37.1804 518.606 36.4702 516.866 35.0497 515.635C33.6529 514.404 31.6643 513.788 29.0838 513.788C26.3613 513.788 24.1951 514.392 22.5852 515.599C20.9754 516.783 19.91 518.275 19.3892 520.074L5.39773 518.938C6.10795 515.623 7.50474 512.759 9.58807 510.344C11.6714 507.905 14.3584 506.035 17.6491 504.733C20.9635 503.407 24.7988 502.744 29.1548 502.744C32.1851 502.744 35.0852 503.099 37.8551 503.81C40.6487 504.52 43.1226 505.621 45.277 507.112C47.455 508.604 49.1714 510.521 50.4261 512.865C51.6809 515.185 52.3082 517.967 52.3082 521.21V558H37.9616V550.436H37.5355C36.6596 552.141 35.4877 553.644 34.0199 554.946C32.5521 556.224 30.7884 557.231 28.7287 557.964C26.669 558.675 24.2898 559.03 21.5909 559.03ZM25.9233 548.589C28.1487 548.589 30.1136 548.152 31.8182 547.276C33.5227 546.376 34.8603 545.169 35.831 543.653C36.8016 542.138 37.2869 540.422 37.2869 538.504V532.716C36.8134 533.024 36.1624 533.308 35.3338 533.568C34.5289 533.805 33.6174 534.03 32.5994 534.243C31.5814 534.432 30.5634 534.61 29.5455 534.776C28.5275 534.918 27.6042 535.048 26.7756 535.166C25 535.427 23.4493 535.841 22.1236 536.409C20.7978 536.977 19.768 537.747 19.0341 538.717C18.3002 539.664 17.9332 540.848 17.9332 542.268C17.9332 544.328 18.679 545.902 20.1705 546.991C21.6856 548.057 23.6032 548.589 25.9233 548.589ZM64.0447 578.455V503.455H78.9595V512.616H79.6342C80.2971 511.149 81.2559 509.657 82.5107 508.142C83.7891 506.603 85.4463 505.325 87.4822 504.307C89.5419 503.265 92.0987 502.744 95.1527 502.744C99.13 502.744 102.799 503.786 106.161 505.869C109.523 507.929 112.21 511.042 114.222 515.209C116.235 519.352 117.241 524.548 117.241 530.798C117.241 536.883 116.258 542.02 114.293 546.21C112.352 550.377 109.701 553.537 106.339 555.692C103.001 557.822 99.2602 558.888 95.1172 558.888C92.1816 558.888 89.6839 558.402 87.6243 557.432C85.5883 556.461 83.9193 555.242 82.6172 553.774C81.3151 552.283 80.3208 550.779 79.6342 549.264H79.1726V578.455H64.0447ZM78.853 530.727C78.853 533.971 79.3028 536.8 80.2024 539.214C81.102 541.629 82.4041 543.511 84.1087 544.861C85.8132 546.187 87.8847 546.849 90.3232 546.849C92.7853 546.849 94.8686 546.175 96.5732 544.825C98.2777 543.452 99.5679 541.558 100.444 539.143C101.344 536.705 101.793 533.9 101.793 530.727C101.793 527.579 101.355 524.809 100.479 522.418C99.6035 520.027 98.3132 518.156 96.6087 516.807C94.9041 515.457 92.8089 514.783 90.3232 514.783C87.861 514.783 85.7777 515.434 84.0732 516.736C82.3923 518.038 81.102 519.884 80.2024 522.276C79.3028 524.667 78.853 527.484 78.853 530.727ZM127.326 578.455V503.455H142.241V512.616H142.915C143.578 511.149 144.537 509.657 145.792 508.142C147.07 506.603 148.728 505.325 150.763 504.307C152.823 503.265 155.38 502.744 158.434 502.744C162.411 502.744 166.081 503.786 169.442 505.869C172.804 507.929 175.491 511.042 177.504 515.209C179.516 519.352 180.522 524.548 180.522 530.798C180.522 536.883 179.54 542.02 177.575 546.21C175.633 550.377 172.982 553.537 169.62 555.692C166.282 557.822 162.541 558.888 158.398 558.888C155.463 558.888 152.965 558.402 150.906 557.432C148.87 556.461 147.201 555.242 145.898 553.774C144.596 552.283 143.602 550.779 142.915 549.264H142.454V578.455H127.326ZM142.134 530.727C142.134 533.971 142.584 536.8 143.484 539.214C144.383 541.629 145.685 543.511 147.39 544.861C149.094 546.187 151.166 546.849 153.604 546.849C156.067 546.849 158.15 546.175 159.854 544.825C161.559 543.452 162.849 541.558 163.725 539.143C164.625 536.705 165.075 533.9 165.075 530.727C165.075 527.579 164.637 524.809 163.761 522.418C162.885 520.027 161.594 518.156 159.89 516.807C158.185 515.457 156.09 514.783 153.604 514.783C151.142 514.783 149.059 515.434 147.354 516.736C145.674 518.038 144.383 519.884 143.484 522.276C142.584 524.667 142.134 527.484 142.134 530.727ZM205.735 485.273V558H190.607V485.273H205.735ZM242.711 559.065C237.1 559.065 232.271 557.929 228.223 555.656C224.198 553.36 221.097 550.116 218.919 545.926C216.741 541.712 215.652 536.729 215.652 530.976C215.652 525.365 216.741 520.441 218.919 516.203C221.097 511.965 224.163 508.663 228.116 506.295C232.093 503.928 236.757 502.744 242.108 502.744C245.706 502.744 249.056 503.324 252.157 504.484C255.282 505.621 258.005 507.337 260.325 509.634C262.669 511.93 264.492 514.818 265.794 518.298C267.096 521.755 267.747 525.803 267.747 530.443V534.598H221.689V525.223H253.507C253.507 523.045 253.033 521.116 252.086 519.435C251.139 517.754 249.825 516.44 248.145 515.493C246.487 514.522 244.558 514.037 242.356 514.037C240.06 514.037 238.024 514.57 236.248 515.635C234.496 516.677 233.123 518.085 232.129 519.861C231.135 521.613 230.626 523.566 230.602 525.72V534.634C230.602 537.332 231.099 539.664 232.093 541.629C233.111 543.594 234.544 545.109 236.39 546.175C238.237 547.24 240.427 547.773 242.96 547.773C244.641 547.773 246.18 547.536 247.576 547.062C248.973 546.589 250.169 545.879 251.163 544.932C252.157 543.985 252.915 542.825 253.436 541.452L267.427 542.375C266.717 545.737 265.261 548.672 263.059 551.182C260.881 553.668 258.064 555.609 254.608 557.006C251.175 558.379 247.209 559.065 242.711 559.065ZM293.173 559.03C289.693 559.03 286.592 558.426 283.869 557.219C281.146 555.988 278.992 554.177 277.406 551.786C275.843 549.371 275.062 546.364 275.062 542.766C275.062 539.735 275.618 537.19 276.731 535.131C277.844 533.071 279.359 531.414 281.277 530.159C283.194 528.904 285.372 527.957 287.811 527.318C290.273 526.679 292.853 526.229 295.552 525.969C298.725 525.637 301.281 525.33 303.223 525.045C305.164 524.738 306.573 524.288 307.449 523.696C308.324 523.104 308.762 522.228 308.762 521.068V520.855C308.762 518.606 308.052 516.866 306.632 515.635C305.235 514.404 303.246 513.788 300.666 513.788C297.943 513.788 295.777 514.392 294.167 515.599C292.557 516.783 291.492 518.275 290.971 520.074L276.98 518.938C277.69 515.623 279.087 512.759 281.17 510.344C283.253 507.905 285.94 506.035 289.231 504.733C292.546 503.407 296.381 502.744 300.737 502.744C303.767 502.744 306.667 503.099 309.437 503.81C312.231 504.52 314.705 505.621 316.859 507.112C319.037 508.604 320.753 510.521 322.008 512.865C323.263 515.185 323.89 517.967 323.89 521.21V558H309.544V550.436H309.118C308.242 552.141 307.07 553.644 305.602 554.946C304.134 556.224 302.37 557.231 300.311 557.964C298.251 558.675 295.872 559.03 293.173 559.03ZM297.505 548.589C299.731 548.589 301.696 548.152 303.4 547.276C305.105 546.376 306.442 545.169 307.413 543.653C308.384 542.138 308.869 540.422 308.869 538.504V532.716C308.395 533.024 307.744 533.308 306.916 533.568C306.111 533.805 305.199 534.03 304.181 534.243C303.163 534.432 302.145 534.61 301.127 534.776C300.109 534.918 299.186 535.048 298.358 535.166C296.582 535.427 295.031 535.841 293.706 536.409C292.38 536.977 291.35 537.747 290.616 538.717C289.882 539.664 289.515 540.848 289.515 542.268C289.515 544.328 290.261 545.902 291.752 546.991C293.268 548.057 295.185 548.589 297.505 548.589ZM335.627 578.455V503.455H350.542V512.616H351.216C351.879 511.149 352.838 509.657 354.093 508.142C355.371 506.603 357.028 505.325 359.064 504.307C361.124 503.265 363.681 502.744 366.735 502.744C370.712 502.744 374.382 503.786 377.743 505.869C381.105 507.929 383.792 511.042 385.804 515.209C387.817 519.352 388.823 524.548 388.823 530.798C388.823 536.883 387.84 542.02 385.875 546.21C383.934 550.377 381.283 553.537 377.921 555.692C374.583 557.822 370.842 558.888 366.699 558.888C363.764 558.888 361.266 558.402 359.206 557.432C357.17 556.461 355.501 555.242 354.199 553.774C352.897 552.283 351.903 550.779 351.216 549.264H350.755V578.455H335.627ZM350.435 530.727C350.435 533.971 350.885 536.8 351.784 539.214C352.684 541.629 353.986 543.511 355.691 544.861C357.395 546.187 359.467 546.849 361.905 546.849C364.367 546.849 366.451 546.175 368.155 544.825C369.86 543.452 371.15 541.558 372.026 539.143C372.926 536.705 373.375 533.9 373.375 530.727C373.375 527.579 372.937 524.809 372.061 522.418C371.185 520.027 369.895 518.156 368.191 516.807C366.486 515.457 364.391 514.783 361.905 514.783C359.443 514.783 357.36 515.434 355.655 516.736C353.974 518.038 352.684 519.884 351.784 522.276C350.885 524.667 350.435 527.484 350.435 530.727ZM398.908 578.455V503.455H413.823V512.616H414.498C415.16 511.149 416.119 509.657 417.374 508.142C418.652 506.603 420.31 505.325 422.346 504.307C424.405 503.265 426.962 502.744 430.016 502.744C433.993 502.744 437.663 503.786 441.025 505.869C444.386 507.929 447.073 511.042 449.086 515.209C451.098 519.352 452.104 524.548 452.104 530.798C452.104 536.883 451.122 542.02 449.157 546.21C447.215 550.377 444.564 553.537 441.202 555.692C437.864 557.822 434.123 558.888 429.98 558.888C427.045 558.888 424.547 558.402 422.488 557.432C420.452 556.461 418.783 555.242 417.48 553.774C416.178 552.283 415.184 550.779 414.498 549.264H414.036V578.455H398.908ZM413.716 530.727C413.716 533.971 414.166 536.8 415.066 539.214C415.965 541.629 417.267 543.511 418.972 544.861C420.676 546.187 422.748 546.849 425.186 546.849C427.649 546.849 429.732 546.175 431.436 544.825C433.141 543.452 434.431 541.558 435.307 539.143C436.207 536.705 436.657 533.9 436.657 530.727C436.657 527.579 436.219 524.809 435.343 522.418C434.467 520.027 433.176 518.156 431.472 516.807C429.767 515.457 427.672 514.783 425.186 514.783C422.724 514.783 420.641 515.434 418.936 516.736C417.256 518.038 415.965 519.884 415.066 522.276C414.166 524.667 413.716 527.484 413.716 530.727ZM477.317 485.273V558H462.189V485.273H477.317ZM514.293 559.065C508.683 559.065 503.853 557.929 499.805 555.656C495.78 553.36 492.679 550.116 490.501 545.926C488.323 541.712 487.234 536.729 487.234 530.976C487.234 525.365 488.323 520.441 490.501 516.203C492.679 511.965 495.745 508.663 499.698 506.295C503.675 503.928 508.339 502.744 513.69 502.744C517.288 502.744 520.638 503.324 523.739 504.484C526.864 505.621 529.587 507.337 531.907 509.634C534.251 511.93 536.074 514.818 537.376 518.298C538.678 521.755 539.329 525.803 539.329 530.443V534.598H493.271V525.223H525.089C525.089 523.045 524.615 521.116 523.668 519.435C522.721 517.754 521.407 516.44 519.727 515.493C518.069 514.522 516.14 514.037 513.938 514.037C511.642 514.037 509.606 514.57 507.83 515.635C506.078 516.677 504.705 518.085 503.711 519.861C502.717 521.613 502.208 523.566 502.184 525.72V534.634C502.184 537.332 502.681 539.664 503.675 541.629C504.693 543.594 506.126 545.109 507.972 546.175C509.819 547.24 512.009 547.773 514.542 547.773C516.223 547.773 517.762 547.536 519.158 547.062C520.555 546.589 521.751 545.879 522.745 544.932C523.739 543.985 524.497 542.825 525.018 541.452L539.009 542.375C538.299 545.737 536.843 548.672 534.641 551.182C532.463 553.668 529.646 555.609 526.19 557.006C522.757 558.379 518.791 559.065 514.293 559.065Z" fill="#006CA9"/>
<path d="M723.5 499.818L713.841 558H706.795L715.205 507.205H714.864L699.068 516.636L700.318 509.477L716.455 499.818H723.5Z" fill="#737370"/>
<path d="M1139.39 558L1140.3 552.886L1162.91 531.864C1165.56 529.402 1167.77 527.252 1169.53 525.415C1171.31 523.578 1172.69 521.854 1173.68 520.244C1174.68 518.634 1175.33 516.939 1175.64 515.159C1175.98 513.114 1175.8 511.343 1175.1 509.847C1174.4 508.35 1173.29 507.195 1171.77 506.381C1170.26 505.566 1168.44 505.159 1166.32 505.159C1164.08 505.159 1162.05 505.623 1160.21 506.551C1158.37 507.46 1156.85 508.748 1155.64 510.415C1154.42 512.062 1153.63 513.985 1153.25 516.182H1146.55C1147.11 512.773 1148.41 509.78 1150.44 507.205C1152.48 504.629 1154.99 502.621 1157.97 501.182C1160.96 499.742 1164.16 499.023 1167.57 499.023C1170.98 499.023 1173.87 499.742 1176.23 501.182C1178.6 502.621 1180.31 504.562 1181.38 507.006C1182.44 509.449 1182.72 512.167 1182.23 515.159C1181.85 517.318 1181.1 519.411 1179.98 521.438C1178.87 523.464 1177.15 525.727 1174.84 528.227C1172.55 530.708 1169.44 533.739 1165.52 537.318L1150.18 551.295L1150.07 551.75H1177.11L1176.09 558H1139.39Z" fill="#FA8F00"/>
<line x1="589" y1="137.5" x2="831" y2="137.5" stroke="#737370" stroke-width="5"/>
<line x1="589" y1="137.5" x2="831" y2="137.5" stroke="#737370" stroke-width="5"/>
<line x1="589" y1="137.5" x2="831" y2="137.5" stroke="#737370" stroke-width="5"/>
<line x1="586.5" y1="140" x2="586.5" y2="108" stroke="#737370" stroke-width="5"/>
<line x1="586.5" y1="140" x2="586.5" y2="108" stroke="#737370" stroke-width="5"/>
<line x1="586.5" y1="140" x2="586.5" y2="108" stroke="#737370" stroke-width="5"/>
<line x1="828.5" y1="137" x2="828.5" y2="105" stroke="#737370" stroke-width="5"/>
<line x1="828.5" y1="137" x2="828.5" y2="105" stroke="#737370" stroke-width="5"/>
<line x1="828.5" y1="137" x2="828.5" y2="105" stroke="#737370" stroke-width="5"/>
<line x1="589" y1="452.5" x2="1136" y2="452.5" stroke="#737370" stroke-width="5"/>
<line x1="589" y1="452.5" x2="1136" y2="452.5" stroke="#737370" stroke-width="5"/>
<line x1="589" y1="452.5" x2="1136" y2="452.5" stroke="#737370" stroke-width="5"/>
<line x1="586.5" y1="455" x2="586.5" y2="423" stroke="#737370" stroke-width="5"/>
<line x1="586.5" y1="455" x2="586.5" y2="423" stroke="#737370" stroke-width="5"/>
<line x1="586.5" y1="455" x2="586.5" y2="423" stroke="#737370" stroke-width="5"/>
<line x1="1133.5" y1="455" x2="1133.5" y2="423" stroke="#737370" stroke-width="5"/>
<line x1="1133.5" y1="455" x2="1133.5" y2="423" stroke="#737370" stroke-width="5"/>
<line x1="1133.5" y1="455" x2="1133.5" y2="423" stroke="#737370" stroke-width="5"/>
<line x1="586.5" y1="455" x2="586.5" y2="423" stroke="#737370" stroke-width="5"/>
<line x1="586.5" y1="455" x2="586.5" y2="423" stroke="#737370" stroke-width="5"/>
<line x1="586.5" y1="455" x2="586.5" y2="423" stroke="#737370" stroke-width="5"/>
<line x1="1133.5" y1="455" x2="1133.5" y2="423" stroke="#737370" stroke-width="5"/>
<line x1="1133.5" y1="455" x2="1133.5" y2="423" stroke="#737370" stroke-width="5"/>
<line x1="1133.5" y1="455" x2="1133.5" y2="423" stroke="#737370" stroke-width="5"/>
<line x1="863" y1="489.5" x2="1410" y2="489.5" stroke="#737370" stroke-width="5"/>
<line x1="863" y1="489.5" x2="1410" y2="489.5" stroke="#737370" stroke-width="5"/>
<line x1="863" y1="489.5" x2="1410" y2="489.5" stroke="#737370" stroke-width="5"/>
<line x1="860.5" y1="492" x2="860.5" y2="460" stroke="#737370" stroke-width="5"/>
<line x1="860.5" y1="492" x2="860.5" y2="460" stroke="#737370" stroke-width="5"/>
<line x1="860.5" y1="492" x2="860.5" y2="460" stroke="#737370" stroke-width="5"/>
<line x1="1407.5" y1="492" x2="1407.5" y2="460" stroke="#737370" stroke-width="5"/>
<line x1="1407.5" y1="492" x2="1407.5" y2="460" stroke="#737370" stroke-width="5"/>
<line x1="1407.5" y1="492" x2="1407.5" y2="460" stroke="#737370" stroke-width="5"/>
<line x1="860.5" y1="492.035" x2="859.5" y2="420.035" stroke="#737370" stroke-width="5"/>
<line x1="860.5" y1="492.035" x2="859.5" y2="420.035" stroke="#737370" stroke-width="5"/>
<line x1="860.5" y1="492.035" x2="859.5" y2="420.035" stroke="#737370" stroke-width="5"/>
<line x1="1407.5" y1="492" x2="1407.5" y2="420" stroke="#737370" stroke-width="5"/>
<line x1="1407.5" y1="492" x2="1407.5" y2="420" stroke="#737370" stroke-width="5"/>
<line x1="1407.5" y1="492" x2="1407.5" y2="420" stroke="#737370" stroke-width="5"/>
<line x1="1155" y1="137.5" x2="1397" y2="137.5" stroke="#737370" stroke-width="5"/>
<line x1="1155" y1="137.5" x2="1397" y2="137.5" stroke="#737370" stroke-width="5"/>
<line x1="1155" y1="137.5" x2="1397" y2="137.5" stroke="#737370" stroke-width="5"/>
<line x1="1152.5" y1="140" x2="1152.5" y2="108" stroke="#737370" stroke-width="5"/>
<line x1="1152.5" y1="140" x2="1152.5" y2="108" stroke="#737370" stroke-width="5"/>
<line x1="1152.5" y1="140" x2="1152.5" y2="108" stroke="#737370" stroke-width="5"/>
<line x1="1394.5" y1="137" x2="1394.5" y2="105" stroke="#737370" stroke-width="5"/>
<line x1="1394.5" y1="137" x2="1394.5" y2="105" stroke="#737370" stroke-width="5"/>
<line x1="1394.5" y1="137" x2="1394.5" y2="105" stroke="#737370" stroke-width="5"/>
<path d="M692.768 183.768C693.744 182.791 693.744 181.209 692.768 180.232L676.858 164.322C675.882 163.346 674.299 163.346 673.322 164.322C672.346 165.299 672.346 166.882 673.322 167.858L687.464 182L673.322 196.142C672.346 197.118 672.346 198.701 673.322 199.678C674.299 200.654 675.882 200.654 676.858 199.678L692.768 183.768ZM555 184.5H691V179.5H555V184.5Z" fill="#82D1F5"/>
<path d="M692.768 523.768C693.744 522.791 693.744 521.209 692.768 520.232L676.858 504.322C675.882 503.346 674.299 503.346 673.322 504.322C672.346 505.299 672.346 506.882 673.322 507.858L687.464 522L673.322 536.142C672.346 537.118 672.346 538.701 673.322 539.678C674.299 540.654 675.882 540.654 676.858 539.678L692.768 523.768ZM555 524.5H691V519.5H555V524.5Z" fill="#82D1F5"/>
<path d="M1277.77 183.768C1278.74 182.791 1278.74 181.209 1277.77 180.232L1261.86 164.322C1260.88 163.346 1259.3 163.346 1258.32 164.322C1257.35 165.299 1257.35 166.882 1258.32 167.858L1272.46 182L1258.32 196.142C1257.35 197.118 1257.35 198.701 1258.32 199.678C1259.3 200.654 1260.88 200.654 1261.86 199.678L1277.77 183.768ZM745 184.5H1276V179.5H745V184.5Z" fill="#82D1F5"/>
<path d="M1138.77 523.768C1139.74 522.791 1139.74 521.209 1138.77 520.232L1122.86 504.322C1121.88 503.346 1120.3 503.346 1119.32 504.322C1118.35 505.299 1118.35 506.882 1119.32 507.858L1133.46 522L1119.32 536.142C1118.35 537.118 1118.35 538.701 1119.32 539.678C1120.3 540.654 1121.88 540.654 1122.86 539.678L1138.77 523.768ZM745 524.5H1137V519.5H745V524.5Z" fill="#82D1F5"/>
</svg>
